<svg width="92" height="24" fill="none" xmlns="http://www.w3.org/2000/svg"><path d="M26.257 14.44c-.336.4-.767.72-1.272.97-.514.24-1.03.36-1.555.36-1.06 0-1.964-.36-2.7-1.07-.735-.71-1.103-1.59-1.103-2.62 0-.97.357-1.8 1.082-2.5.725-.7 1.576-1.05 2.574-1.05.568 0 1.135.12 1.681.37.547.25.999.59 1.356 1.01h2.375c-.442-.97-1.135-1.74-2.102-2.31-.966-.57-2.038-.86-3.226-.86-1.607 0-2.983.53-4.118 1.58-1.135 1.05-1.702 2.33-1.702 3.83s.567 2.77 1.702 3.83c1.135 1.05 2.51 1.58 4.119 1.58 1.176 0 2.238-.28 3.204-.85.956-.57 1.65-1.32 2.08-2.27h-2.395zM47.491 17.56c1.64 0 3.026-.53 4.172-1.58 1.145-1.05 1.723-2.33 1.723-3.83s-.578-2.78-1.723-3.83c-1.146-1.05-2.543-1.58-4.172-1.58-1.628 0-3.026.53-4.17 1.58-1.146 1.05-1.724 2.33-1.724 3.83s.578 2.77 1.723 3.83c1.156 1.06 2.543 1.58 4.171 1.58zm0-1.79c-1.06 0-1.964-.35-2.7-1.05-.735-.7-1.103-1.55-1.103-2.56s.368-1.87 1.103-2.57c.736-.7 1.64-1.05 2.7-1.05 1.062 0 1.965.35 2.7 1.05.736.7 1.104 1.56 1.104 2.57 0 1.01-.368 1.86-1.103 2.56-.736.7-1.64 1.05-2.7 1.05zM72.719 17.36v-1.79h-3.457V6.96h-2.08v10.41h5.537v-.01zM91.988 17.36v-1.79h-3.982V13.1H91.8v-1.79h-3.793V8.75h3.982V6.96h-6.073v10.41h6.073v-.01z" fill="#F7F5F0"/><path d="M8.017 17.56L0 4.65v12.91h8.017zM.525.04l7.86 12.8V.04H.525zM11.39 17.56h3.488V.04h-3.489v17.52z" fill="#D9B56F"/><path d="M21.256 4.2v-.38h-1.881V0h-.462v4.2h2.343zM24.26 3.98c.305-.2.515-.46.63-.78h-.45c-.127.24-.285.42-.484.54-.2.12-.431.19-.704.19-.368 0-.683-.12-.946-.37-.22-.21-.347-.46-.378-.75h3.057c.011-.05.011-.1.011-.15 0-.46-.168-.84-.504-1.16-.337-.31-.757-.47-1.25-.47-.495 0-.904.16-1.24.47-.337.31-.505.7-.505 1.16 0 .45.168.84.505 1.15.336.31.756.47 1.24.47a1.98 1.98 0 001.018-.3zm-2.322-1.54c.053-.27.169-.5.368-.7.252-.25.568-.37.935-.37.368 0 .683.12.936.37.2.2.325.43.367.7H21.94zM25.648 5.29h.44V3.67l.127.13c.336.32.756.47 1.271.47.494 0 .904-.16 1.24-.47.336-.31.504-.7.504-1.15 0-.46-.168-.84-.504-1.16a1.76 1.76 0 00-1.24-.47c-.515 0-.935.16-1.271.47l-.116.12v-.52h-.441v4.2h-.01zm.808-1.74a1.2 1.2 0 01-.388-.91c0-.36.126-.66.388-.91.263-.25.589-.37.967-.37s.704.12.967.37c.262.25.389.55.389.91s-.127.66-.39.91a1.35 1.35 0 01-.966.37 1.35 1.35 0 01-.966-.37zM32.73 3.8c.041-.04.073-.08.115-.12v.52h.441V1.09h-.43v.52l-.116-.12c-.326-.32-.746-.47-1.25-.47-.494 0-.915.16-1.261.47-.347.31-.515.7-.515 1.16 0 .45.168.84.515 1.15.346.31.767.47 1.26.47.494 0 .904-.15 1.24-.47zm-.264-2.06c.263.25.39.55.39.91s-.127.66-.39.91a1.35 1.35 0 01-.966.37 1.35 1.35 0 01-.967-.37 1.2 1.2 0 01-.389-.91c0-.36.127-.66.39-.91.262-.25.588-.37.966-.37s.704.13.966.37zM34.463 1.09h-.441v1.85c0 .42.126.74.388.98.252.23.61.35 1.072.35.41 0 .735-.13.967-.4a.993.993 0 00.115-.17v.5h.4V1.09h-.441v1.65c0 .38-.095.67-.285.87-.189.2-.451.3-.788.3-.315 0-.567-.09-.746-.26-.178-.17-.262-.41-.262-.72V1.09h.02zM38.623 4.2V1.45h.8v-.36h-.8V0h-.43v1.09h-.715v.36h.715V4.2h.43zM42.48 3.98c.304-.2.514-.46.63-.78h-.452c-.126.24-.284.42-.483.54-.2.12-.431.19-.704.19-.368 0-.683-.12-.946-.37-.22-.21-.346-.46-.378-.75h3.058c.01-.05.01-.1.01-.15 0-.46-.168-.84-.504-1.16-.337-.31-.757-.47-1.25-.47-.484 0-.904.16-1.24.47-.337.31-.505.7-.505 1.16 0 .45.168.84.505 1.15.336.31.756.47 1.24.47a1.98 1.98 0 001.019-.3zm-2.322-1.54c.052-.27.168-.5.367-.7.252-.25.568-.37.935-.37.368 0 .683.12.935.37.2.2.326.43.368.7h-2.605zM55.445 23.9h.42v-3.57h.872c.368 0 .652.08.852.24.2.16.304.38.304.66s-.105.5-.304.66c-.2.16-.484.24-.852.24h-.462l1.46 1.79h.547l-1.219-1.45c.347-.04.63-.15.84-.31.285-.22.421-.52.421-.91s-.136-.7-.42-.92c-.284-.22-.673-.33-1.167-.33h-1.292v3.9zM66.782 23.9v-.36H64.88v-1.45h1.85v-.36h-1.85v-1.41h1.902v-.36H64.45v3.93h2.332v.01zM73.097 23.9h.42v-3.93h-.42v3.93zM80.336 20.45l2.532 3.45h.431v-3.93h-.42v3.25l-2.375-3.25h-.588v3.93h.42v-3.45zM91.988 23.9v-.36h-1.901v-1.45h1.849v-.36h-1.85v-1.41h1.902v-.36h-2.332v3.93h2.332v.01z" fill="#F7F5F0"/></svg>